<svg fill="#000000" xmlns="http://www.w3.org/2000/svg"  viewBox="0 0 50 50" width="100px" height="100px"><path d="M 3 12 C 1.3550302 12 0 13.35503 0 15 L 0 37 C 0 38.64497 1.3550302 40 3 40 L 47 40 C 48.64497 40 50 38.64497 50 37 L 50 15 C 50 13.35503 48.64497 12 47 12 L 3 12 z M 3 14 L 16 14 L 16 38 L 3 38 C 2.4349698 38 2 37.56503 2 37 L 2 15 C 2 14.43497 2.4349698 14 3 14 z M 18 14 L 32 14 L 32 38 L 18 38 L 18 14 z M 34 14 L 37 14 L 37 19 C 37 20.645455 38.354545 22 40 22 L 42 22 C 43.645455 22 45 20.645455 45 19 L 45 14 L 47 14 C 47.56503 14 48 14.43497 48 15 L 48 37 C 48 37.56503 47.56503 38 47 38 L 41.126953 38 L 44.916016 29.404297 A 1.0001 1.0001 0 0 0 45 29 L 45 27 A 1.0001 1.0001 0 0 0 44 26 L 37 26 L 37 28 L 43 28 L 43 28.789062 L 38.939453 38 L 34 38 L 34 14 z M 39 14 L 43 14 L 43 19 C 43 19.554545 42.554545 20 42 20 L 40 20 C 39.445455 20 39 19.554545 39 19 L 39 14 z M 8 17 C 6.3545455 17 5 18.354545 5 20 L 5 32 C 5 33.645455 6.3545455 35 8 35 L 10 35 C 11.645455 35 13 33.645455 13 32 L 13 20 C 13 18.354545 11.645455 17 10 17 L 8 17 z M 24 17 C 22.354545 17 21 18.354545 21 20 L 21 32 C 21 33.645455 22.354545 35 24 35 L 26 35 C 27.645455 35 29 33.645455 29 32 L 29 20 C 29 18.354545 27.645455 17 26 17 L 24 17 z M 8 19 L 10 19 C 10.554545 19 11 19.445455 11 20 L 11 32 C 11 32.554545 10.554545 33 10 33 L 8 33 C 7.4454545 33 7 32.554545 7 32 L 7 20 C 7 19.445455 7.4454545 19 8 19 z M 24 19 L 26 19 C 26.554545 19 27 19.445455 27 20 L 27 32 C 27 32.554545 26.554545 33 26 33 L 24 33 C 23.445455 33 23 32.554545 23 32 L 23 20 C 23 19.445455 23.445455 19 24 19 z"/></svg>