<svg fill="#000000" xmlns="http://www.w3.org/2000/svg"  viewBox="0 0 50 50" width="250px" height="250px"><path d="M 10 9 C 7.2504839 9 5 11.250484 5 14 L 5 34.5 C 5 35.874758 5.5353422 37.200685 6.4101562 38.226562 C 7.2849704 39.252441 8.549793 40 10 40 L 40 40 C 42.749516 40 45 37.749516 45 35 L 45 22.123047 C 45 20.605166 44.308774 19.167081 43.123047 18.21875 L 43.048828 18.160156 L 27.580078 10.001953 C 26.717697 9.3580388 25.675858 9 24.597656 9 L 10 9 z M 10 11 L 24.597656 11 C 25.278784 11 25.939417 11.232575 26.470703 11.658203 L 26.544922 11.716797 L 38.458984 18 L 7 18 L 7 14 C 7 12.331516 8.3315161 11 10 11 z M 42 19.916016 C 42.625628 20.482089 43 21.273343 43 22.123047 L 43 35 C 43 36.668484 41.668484 38 40 38 L 10 38 C 9.241207 38 8.5045766 37.601559 7.9316406 36.929688 C 7.3587046 36.257815 7 35.334242 7 34.5 L 7 20 L 42 20 L 42 19.916016 z M 32.789062 22 C 32.471063 22 31.642031 22.060047 30.832031 22.623047 C 30.478031 22.868047 30.077203 23.139828 29.658203 23.423828 C 28.808203 23.998828 27.886625 24.623828 27.140625 25.173828 C 26.826168 25.405204 26.575578 25.692588 26.382812 26 L 13.810547 26 L 11 27.802734 L 11 29.972656 L 13.777344 32 L 26.378906 32 C 26.572665 32.310077 26.826653 32.598976 27.144531 32.830078 C 28.407531 33.749078 29.760469 34.684531 30.855469 35.394531 C 31.699469 35.941531 32.488062 36 32.789062 36 L 35.685547 36 C 37.513547 36 39 34.474609 39 32.599609 L 39 25.400391 C 39 23.525391 37.513547 22 35.685547 22 L 32.789062 22 z M 32.789062 24 L 35.685547 24 C 36.410547 24 37 24.628391 37 25.400391 L 37 32.599609 C 37 33.371609 36.410547 34 35.685547 34 L 32.789062 34 C 32.747062 34 32.369359 33.992797 31.943359 33.716797 C 30.877359 33.024797 29.556313 32.111891 28.320312 31.212891 C 28.075312 31.034891 28.005 30.830781 28 30.800781 L 28 27.216797 C 28.006 27.171797 28.079125 26.966203 28.328125 26.783203 C 29.055125 26.246203 29.952297 25.639125 30.779297 25.078125 C 31.204297 24.790125 31.612703 24.515578 31.970703 24.267578 C 32.326703 24.019578 32.687063 24 32.789062 24 z M 34 26 C 33.447 26 33 26.448 33 27 L 33 31 C 33 31.552 33.447 32 34 32 C 34.553 32 35 31.552 35 31 L 35 27 C 35 26.448 34.553 26 34 26 z M 14.396484 28 L 26 28 L 26 30 L 14.429688 30 L 13 28.955078 L 13 28.896484 L 14.396484 28 z"/></svg>